<svg id="Layer_1" data-name="Layer 1" xmlns="http://www.w3.org/2000/svg" viewBox="0 0 235.53 71.32"><defs><style>.cls-1{fill:#231f20;}.cls-2{fill:#ec1c24;}.cls-3{fill:#fff;stroke:#231f20;stroke-miterlimit:10;stroke-width:0.75px;}</style></defs><title>pk-logo-horizontal-blk-text</title><circle class="cls-1" cx="35.66" cy="35.66" r="35.66"/><circle class="cls-2" cx="35.35" cy="35.55" r="26.35"/><path class="cls-3" d="M553.81,515.91c-2.16,1.91-4.28,2.34-9.59,2.28l-8,0,0,12H528.5V495.85H545c3.68,0,6.58.05,8.77,1.88s3.42,4.94,3.42,8.77C557.19,510.68,555.89,514.07,553.81,515.91ZM548,503.1a4.77,4.77,0,0,0-3.16-1l-8.61,0,0,9.58h8c1.77,0,2.84-.13,3.83-1s1.34-2.1,1.34-3.94S549,503.89,548,503.1Z" transform="translate(-522.79 -476.34)"/><path class="cls-3" d="M558.52,495.82l7,0,0,14.56,12-14.56,9.59,0-12.09,13.74,12.72,20.55h-9.25l-9-14.76-4,4.47,0,10.29h-7Z" transform="translate(-522.79 -476.34)"/><path class="cls-1" d="M603.66,518.21A4.6,4.6,0,0,0,604,521c.75,1.12,2.17,1.66,4.62,1.66a10,10,0,0,0,3.72-.48,3.9,3.9,0,0,0,2.58-2.85,2.3,2.3,0,0,0-.71-2.47c-.74-.48-1.28-.53-3-.9l-3.79-.55c-3.1-.53-4.77-.92-6.06-1.67-1.83-1.06-3.32-2.5-2.73-6.4a8.89,8.89,0,0,1,3.91-6.19c2.31-1.61,5.87-2.3,9.62-2.3,3.13,0,7.39.41,9.25,1.93a6.88,6.88,0,0,1,2.46,6.54l-7.42,0c0-1.52-.12-2.44-1.42-3.12a3.85,3.85,0,0,0-2.5-.66c-1.6,0-3.62-.13-5,.83a3.38,3.38,0,0,0-1.67,2.63c-.08,1.12.72,1.6,1.56,2.08a25,25,0,0,0,3.69.79l4.92.83c2.13.49,4.13,1,5.08,1.83,1.8,1.64,1.94,4,1.38,6.46a9.41,9.41,0,0,1-4.25,6.29c-3,1.88-6.5,2.23-10.29,2.23-4.79,0-7.92-.7-10-2.39-1.89-1.57-2.45-4.13-1.79-7Z" transform="translate(-522.79 -476.34)"/><path class="cls-1" d="M636.54,499.61h8.08l5.62,27.2H643l-.62-5.59H630.83l-3.07,5.6h-7.41Zm-2.87,16.68,7.54,0-1.7-10.54Z" transform="translate(-522.79 -476.34)"/><path class="cls-1" d="M656.87,499.61h21.87l-1,5.1-15.32,0-1,6,14.29-.08-1,5.17-14.36,0-2.05,11h-6.62Z" transform="translate(-522.79 -476.34)"/><path class="cls-1" d="M702,504.75l-16.29,0-1,5.46h15.46l-.92,5-15.54.08-1,6.17,16.25.08-.87,5.26-23.26,0,5.35-27.2h22.79Z" transform="translate(-522.79 -476.34)"/><path class="cls-1" d="M729.25,499.65l-1,5.09-9,0L715,526.86h-6.67l4.17-22.15-9.08,0,1.13-5.09Z" transform="translate(-522.79 -476.34)"/><path class="cls-1" d="M750.16,499.65h8.16L744.1,517.21l-2,9.65h-6.6l1.79-9.78-7.37-17.43h7.87l3.92,11.68Z" transform="translate(-522.79 -476.34)"/><path class="cls-1" d="M753.64,527.15a2.87,2.87,0,1,1,.84-2A2.76,2.76,0,0,1,753.64,527.15Zm-3.77-3.78a2.39,2.39,0,0,0-.72,1.75,2.41,2.41,0,0,0,.71,1.76,2.46,2.46,0,0,0,3.49,0,2.49,2.49,0,0,0,0-3.5,2.46,2.46,0,0,0-3.49,0Zm1.69.16a2.43,2.43,0,0,1,.86.11.78.78,0,0,1,.49.8.69.69,0,0,1-.31.62,1.19,1.19,0,0,1-.45.15.77.77,0,0,1,.54.31.86.86,0,0,1,.17.49v.23c0,.07,0,.15,0,.23a.5.5,0,0,0,0,.16l0,0h-.52v-.42a.77.77,0,0,0-.3-.72,1.35,1.35,0,0,0-.62-.1H751v1.24h-.55v-3.15Zm.6.5a1.44,1.44,0,0,0-.67-.12H751v1.14h.5A1.5,1.5,0,0,0,752,525a.57.57,0,0,0,.12-1Z" transform="translate(-522.79 -476.34)"/></svg>